<svg width="50" height="51" viewBox="0 0 50 51" fill="none" xmlns="http://www.w3.org/2000/svg">
<path d="M24.5961 10.8662C26.2883 13.7732 27.9952 16.6717 29.6691 19.5898C26.9635 24.3624 24.297 29.1582 21.4998 33.8783C20.4266 35.6902 19.3827 37.5191 18.3217 39.3371C14.8812 39.3578 11.4406 39.3566 8 39.3517C8.105 39.1161 8.20878 38.8792 8.33576 38.6546C13.753 29.3902 19.191 20.138 24.5961 10.8662Z" fill="#AE285D"/>
<path d="M24.5938 28.5892C28.0465 28.588 31.4993 28.5636 34.9521 28.6209C37.0082 32.2056 39.1301 35.7512 41.1679 39.3456C37.7151 39.3627 34.2635 39.3493 30.8107 39.3468C28.7559 35.75 26.6095 32.208 24.5938 28.5892Z" fill="#AE285D"/>
</svg>
