<svg width="50" height="51" viewBox="0 0 50 51" fill="none" xmlns="http://www.w3.org/2000/svg">
<path d="M32.815 11.5527H34.8164C37.4643 11.5527 39.3855 12.2284 40.5802 13.5798C41.7748 14.9312 42.2131 16.598 41.8951 18.58C41.6409 20.2147 40.8638 21.723 39.6801 22.8788C38.8693 23.6753 37.7801 24.3059 36.4124 24.7708C38.3044 25.2573 39.6166 26.0992 40.3585 27.2831C41.1005 28.4669 41.3153 29.9656 41.0234 31.7603C40.7992 33.1878 40.2392 34.5416 39.3896 35.7104C38.5555 36.862 37.4722 37.8103 36.2205 38.4849C35.4421 38.9065 34.316 39.2133 32.842 39.4052C30.8893 39.6619 29.5987 39.7944 28.9743 39.7944H21.5078C21.9718 39.7592 22.579 39.6971 23.3295 39.6079H24.7836C25.4107 39.6079 26.6972 39.4727 28.6513 39.22C30.1208 39.029 31.2447 38.7223 32.0231 38.2997C33.2748 37.6252 34.358 36.6768 35.1921 35.5253C36.0413 34.3562 36.6013 33.0025 36.826 31.5751C37.1179 29.7787 36.8958 28.2863 36.1597 27.0979C35.4192 25.9141 34.1056 25.0708 32.215 24.5857C33.588 24.1262 34.6772 23.4955 35.4827 22.6937C36.6663 21.5379 37.4434 20.0296 37.6976 18.3949C38.0211 16.4128 37.5828 14.7461 36.3827 13.3947C35.5493 12.4523 34.3601 11.8383 32.815 11.5527Z" fill="#F58220"/>
<path d="M14.7276 11.3672H30.6147C33.2616 11.3672 35.1829 12.0429 36.3784 13.3943C37.574 14.7457 38.0123 16.4124 37.6933 18.3945C37.4394 20.0297 36.6623 21.5385 35.4784 22.6947C34.6675 23.4911 33.5783 24.1217 32.2107 24.5866C34.1027 25.0731 35.4149 25.915 36.1554 27.0989C36.896 28.2827 37.1136 29.7801 36.8217 31.5761C36.597 33.0034 36.037 34.3572 35.1878 35.5262C34.3538 36.6778 33.2705 37.6261 32.0188 38.3007C31.2404 38.7223 30.1165 39.0291 28.647 39.221C26.6929 39.4777 25.4037 39.6088 24.7793 39.6088H23.3252C23.7369 39.5602 24.1919 39.503 24.6901 39.4372C26.1605 39.2466 27.2848 38.9372 28.0686 38.5169C29.3199 37.8423 30.4027 36.8939 31.2363 35.7425C32.0863 34.5733 32.6463 33.219 32.8702 31.791C33.1621 29.9963 32.9405 28.5043 32.2053 27.3151C31.4647 26.1313 30.1498 25.288 28.2605 24.8028C29.6336 24.3434 30.7223 23.7127 31.5269 22.9109C32.7093 21.7544 33.4847 20.2454 33.7364 18.6107C34.0599 16.6287 33.6216 14.9619 32.4215 13.6105C31.2215 12.2591 29.3007 11.5834 26.6591 11.5834H14.6924L14.7276 11.3672ZM12.514 39.6034C12.5882 39.3542 12.6389 39.0986 12.6653 38.8399H12.6748L29.1146 32.9748L12.5694 37.4655L12.5613 37.4304L27.0456 27.584L12.0748 36.2884L12.0532 36.2519L29.2822 16.3674L10.9045 34.8586L10.1328 39.6034H12.514ZM10.9612 34.5154L23.5009 12.7578L11.5937 30.6396L10.9626 34.5154H10.9612ZM12.8099 23.1839L16.1885 13.4213L13.2627 20.3729L12.8099 23.1839Z" fill="white"/>
<path d="M12.6759 38.8395L29.1157 32.9744L12.5705 37.4651L12.5624 37.43L27.0467 27.5836L12.0759 36.288L12.0542 36.2515L29.2833 16.367L10.7758 34.9893L10.7123 34.9501L23.502 12.7547L9.07981 34.4136L8.91629 34.4001L16.1895 13.4209L7.24325 34.665V34.6771C7.1473 34.7123 7.02703 34.7569 7 34.769L10.7731 11.583H26.6602C29.3063 11.583 31.2271 12.2587 32.4226 13.6101C33.6181 14.9615 34.0565 16.6282 33.7375 18.6103C33.4843 20.2457 32.707 21.7547 31.5226 22.9105C30.7117 23.706 29.6229 24.3367 28.2562 24.8024C30.1482 25.2889 31.4604 26.1309 32.201 27.3147C32.9415 28.4985 33.1578 29.9959 32.8659 31.7905C32.642 33.2186 32.082 34.5729 31.232 35.742C30.3984 36.8935 29.3156 37.8419 28.0643 38.5165C27.2859 38.9368 26.1616 39.2462 24.6858 39.4368C22.7326 39.6936 21.4438 39.8228 20.8195 39.8246H12.4408C12.5549 39.5084 12.6298 39.1794 12.6637 38.8449L12.6759 38.8395Z" fill="#F58220"/>
</svg>
