<svg width="50" height="51" viewBox="0 0 50 51" fill="none" xmlns="http://www.w3.org/2000/svg">
<path fill-rule="evenodd" clip-rule="evenodd" d="M15.6629 37.0485C14.1126 37.0745 12.6152 36.4844 11.4995 35.4078C10.3837 34.3311 9.74071 32.8557 9.7115 31.3054C9.70055 30.4793 9.8491 29.6587 10.149 28.8888C10.6088 27.8021 11.384 26.8784 12.3744 26.2371C13.3648 25.5958 14.5249 25.2664 15.7046 25.2916C16.4935 25.2644 17.2799 25.3964 18.0168 25.6796C18.7537 25.9628 19.426 26.3915 19.9937 26.94C20.5615 27.4886 21.0129 28.1458 21.3213 28.8725C21.6297 29.5992 21.7886 30.3806 21.7886 31.17C21.7886 31.9595 21.6297 32.7408 21.3213 33.4676C21.0129 34.1943 20.5615 34.8515 19.9937 35.4C19.426 35.9486 18.7537 36.3772 18.0168 36.6604C17.2799 36.9436 16.4935 37.0756 15.7046 37.0485H15.6629ZM15.6629 28.1666C15.2829 28.1716 14.9079 28.2534 14.5604 28.4071C14.2129 28.5607 13.9 28.783 13.6405 29.0606C13.3811 29.3382 13.1804 29.6654 13.0506 30.0226C12.9208 30.3797 12.8645 30.7594 12.8851 31.1388C12.8627 31.5217 12.9172 31.9053 13.0456 32.2667C13.174 32.6282 13.3736 32.9602 13.6326 33.2432C13.8916 33.5262 14.2048 33.7543 14.5535 33.9141C14.9022 34.0739 15.2795 34.1621 15.6629 34.1735C17.5379 34.1735 18.3851 32.4235 18.3851 31.1874C18.3851 29.9513 17.5309 28.1666 15.6073 28.1666H15.6629Z" fill="#007DC5"/>
<path fill-rule="evenodd" clip-rule="evenodd" d="M22.2031 36.8473V25.4932H25.4184V36.8473H22.2031Z" fill="#007DC5"/>
<path fill-rule="evenodd" clip-rule="evenodd" d="M8.55556 31.1667C8.85343 30.8987 9.08779 30.5676 9.24156 30.1976C9.39533 29.8276 9.46464 29.428 9.44444 29.0278C9.45608 28.5513 9.3654 28.0779 9.17852 27.6394C8.99163 27.201 8.7129 26.8077 8.36111 26.4861C7.25 25.5833 6.48611 25.5 4.65278 25.5H1V36.8403H4.68056C6.51389 36.8403 7.30556 36.7569 8.38889 35.8542C8.74032 35.5323 9.01881 35.139 9.20566 34.7006C9.39252 34.2622 9.4834 33.7889 9.47222 33.3125C9.4915 32.9114 9.4218 32.511 9.26812 32.14C9.11444 31.769 8.88059 31.4366 8.58333 31.1667H8.55556ZM4.06944 28.3889H5.16667C5.74306 28.3889 6.34028 28.4861 6.34028 29.2222C6.34028 29.8333 5.88889 29.9514 5.16667 29.9514H4.06944V28.375V28.3889ZM5.16667 33.9653H4.06944V32.4028H5.16667C5.86111 32.4028 6.34028 32.5208 6.34028 33.0972C6.34028 33.8333 5.74306 33.9306 5.16667 33.9306V33.9653Z" fill="#007DC5"/>
<path fill-rule="evenodd" clip-rule="evenodd" d="M38.3247 31.6597L31.9427 37.3056L35.5122 29.5903L28.2344 25.3819L36.5538 26.2708L38.3247 13L40.1024 26.2708L48.4288 25.375L41.1372 29.5903L44.7135 37.3194L38.3247 31.6597Z" fill="#231F20"/>
<path fill-rule="evenodd" clip-rule="evenodd" d="M38.3316 31.5003L32.3038 36.8337L35.6788 29.542L28.7969 25.5628L36.6649 26.4031L38.3316 13.917L40.0052 26.4031L47.8733 25.5628L40.9913 29.542L44.3663 36.8337L38.3316 31.5003Z" fill="#EF4123"/>
<path fill-rule="evenodd" clip-rule="evenodd" d="M39.9991 26.4023H36.6589L35.6797 29.5412L38.3255 31.4996L40.9852 29.5412L39.9991 26.4023Z" fill="#007DC5"/>
<path fill-rule="evenodd" clip-rule="evenodd" d="M38.3246 30.8261C37.8986 30.8261 37.4821 30.6996 37.1279 30.4628C36.7737 30.2259 36.4978 29.8893 36.3351 29.4955C36.1723 29.1017 36.1301 28.6685 36.2138 28.2507C36.2974 27.833 36.5031 27.4494 36.8049 27.1486C37.1066 26.8478 37.4909 26.6433 37.9089 26.561C38.327 26.4788 38.7601 26.5224 39.1533 26.6864C39.5465 26.8504 39.8823 27.1274 40.118 27.4823C40.3537 27.8373 40.4788 28.2542 40.4774 28.6802C40.4774 28.9626 40.4217 29.2422 40.3134 29.503C40.2051 29.7638 40.0465 30.0007 39.8465 30.2C39.6465 30.3994 39.4091 30.5573 39.148 30.6647C38.8868 30.7721 38.607 30.827 38.3246 30.8261Z" fill="#231F20"/>
<path fill-rule="evenodd" clip-rule="evenodd" d="M38.3247 30.7089C37.9236 30.7089 37.5315 30.59 37.1981 30.3671C36.8646 30.1443 36.6047 29.8276 36.4512 29.4571C36.2978 29.0866 36.2576 28.6788 36.3358 28.2855C36.4141 27.8921 36.6072 27.5308 36.8908 27.2472C37.1744 26.9637 37.5357 26.7705 37.9291 26.6923C38.3224 26.614 38.7301 26.6542 39.1006 26.8077C39.4712 26.9612 39.7879 27.2211 40.0107 27.5545C40.2335 27.888 40.3524 28.28 40.3524 28.6811C40.3524 29.2189 40.1388 29.7347 39.7585 30.115C39.3782 30.4952 38.8625 30.7089 38.3247 30.7089Z" fill="white"/>
<path fill-rule="evenodd" clip-rule="evenodd" d="M38.329 14.8408L36.8359 26.0839L38.3359 25.2853L38.329 14.8408Z" fill="#F58220"/>
<path fill-rule="evenodd" clip-rule="evenodd" d="M35.1224 27.6321L29.3516 25.7432L35.4557 29.264L35.1224 27.6321Z" fill="#F58220"/>
<path fill-rule="evenodd" clip-rule="evenodd" d="M47.316 25.7363L40.3438 26.4933L41.5382 27.6252L47.316 25.7363Z" fill="#F58220"/>
<path fill-rule="evenodd" clip-rule="evenodd" d="M40.3359 31.3746L44.0095 36.3537L41.0095 29.9023L40.3359 31.3746Z" fill="#F58220"/>
<path fill-rule="evenodd" clip-rule="evenodd" d="M32.6484 36.3542L37.9957 31.6181L36.322 31.375L32.6484 36.3542Z" fill="#F58220"/>
<path fill-rule="evenodd" clip-rule="evenodd" d="M38.5312 31.5003L40.2326 31.2573L40.9271 29.7295L38.5312 31.5003Z" fill="#F58220"/>
<path fill-rule="evenodd" clip-rule="evenodd" d="M35.7422 29.7354L36.4227 31.2492L38.1241 31.4992L35.7422 29.7354Z" fill="#F58220"/>
<path fill-rule="evenodd" clip-rule="evenodd" d="M36.4965 26.542L35.2812 27.6809L35.6215 29.3337L36.4965 26.542Z" fill="#F58220"/>
<path fill-rule="evenodd" clip-rule="evenodd" d="M40.1641 26.542L41.3793 27.6809L41.0391 29.3267L40.1641 26.542Z" fill="#F58220"/>
<path fill-rule="evenodd" clip-rule="evenodd" d="M39.8472 26.2853L38.3333 25.4658L36.8125 26.2853H39.8472Z" fill="#F58220"/>
</svg>
