<svg width="50" height="51" viewBox="0 0 50 51" fill="none" xmlns="http://www.w3.org/2000/svg">
<path d="M22.4073 43.0657L27.6349 36.1639L23.7051 35.6241L21.4944 38.2885C21.0135 38.8686 20.2112 38.52 19.7931 38.2224L8.46674 30.1431C8.0381 29.8375 8.39993 29.3011 8.84444 29.2277L20.1933 27.3597L21.5493 25.0498L3.82982 27.9669C3.16967 28.0741 2.66761 28.8281 3.27021 29.3223L19.889 42.9664C20.4764 43.4487 21.7352 43.956 22.4073 43.0657Z" fill="#FFB600"/>
<path d="M33.4587 8.81914L47.0956 33.666C48.4867 36.1988 47.089 38.8367 44.7044 38.5087L28.8965 36.3377L30.4642 33.6627L41.872 35.1365C43.058 35.2992 42.9336 34.4843 42.4336 33.5708L32.8131 13.5136C32.61 13.1445 31.9234 12.952 31.6906 13.3509L21.0409 31.4924C20.7254 32.0302 20.6374 32.3881 21.3227 32.482L25.8273 33.0641L23.7026 35.624L17.9836 34.8381C16.9173 34.6913 16.4509 33.7315 17.0826 32.6553L30.8009 9.28481C31.4181 8.2344 32.5968 7.25012 33.4587 8.81914Z" fill="#019EEC"/>
<path d="M29.6115 33.553L30.7175 32.0918L35.5958 25.6517C36.6813 24.2197 36.4538 22.5971 34.9794 22.8385L26.3749 24.2554L25.2782 26.5229L29.8926 25.7629C30.8875 25.5995 31.0846 26.7293 30.3087 27.6646L27.1819 31.4323L25.8272 33.0642L22.0859 37.5735L25.1638 39.4236L29.6115 33.553Z" fill="#FFB500"/>
</svg>
