<svg width="50" height="51" viewBox="0 0 50 51" fill="none" xmlns="http://www.w3.org/2000/svg">
<path d="M17.7545 14.9741C26.278 6.5133 36.6183 4.31743 40.7563 10.0843C44.8944 15.8512 41.2575 27.5072 32.734 35.968C24.2106 44.4915 13.8703 46.6842 9.66959 40.8547C5.59736 35.0283 9.23417 23.4318 17.7545 14.9741Z" fill="#F06321"/>
<path d="M23.3945 10.4599C22.4548 11.149 21.515 11.9634 20.5753 12.8437C13.1168 20.2363 9.98119 30.3887 13.6807 35.4665C17.5023 40.5411 26.6523 38.6616 34.2986 31.2032C38.4367 27.1936 41.1932 22.5544 42.3209 18.2315C42.6342 15.0364 42.1957 12.214 40.7547 10.084C37.4969 5.57319 30.4771 5.94595 23.3945 10.4599Z" fill="#AE282E"/>
<path d="M34.1758 11.3998V11.5878C34.1133 12.6528 33.4867 13.9684 32.359 15.0961C30.6675 16.725 28.4121 17.3515 27.4692 16.4149C26.4042 15.4125 27.0338 13.2167 28.7253 11.4625C30.4795 9.77093 32.7349 9.20708 33.6747 10.2095C33.9879 10.5227 34.1758 10.8986 34.1758 11.3998ZM27.6603 40.1654C23.6476 43.1726 19.5127 44.6793 15.5 44.0528C17.1915 44.1155 18.5729 42.2328 19.7006 39.7268C20.8283 37.1582 21.4548 34.7775 22.0187 32.519C22.8331 28.948 22.8958 26.442 22.4572 25.8782C21.7681 24.9979 20.2645 25.189 18.5072 26.1914C17.6301 26.6926 16.5024 26.3793 17.8212 24.7505C19.1995 23.1216 24.5247 19.2341 26.4042 18.6077C28.5374 18.0438 30.9181 18.8583 30.1036 21.1763C29.5367 22.8678 22.144 42.1702 27.6603 40.1654Z" fill="white"/>
</svg>
