<svg width="50" height="51" viewBox="0 0 50 51" fill="none" xmlns="http://www.w3.org/2000/svg">
<g clip-path="url(#clip0_4074_78983)">
<path fill-rule="evenodd" clip-rule="evenodd" d="M6.31612 26.4599L6.02037 27.8779H4.72777C4.82601 27.4085 4.92451 26.9052 5.03617 26.425C5.05896 26.3208 5.08428 26.2141 5.10833 26.0979C5.10833 26.0155 5.12023 25.9337 5.13365 25.8516C5.18252 25.278 4.75182 25.1721 4.33454 25.348C4.08615 25.4417 3.9755 25.6051 3.85421 25.8167C3.74204 26.0042 3.70685 26.1792 3.65595 26.4134L3.33565 27.8779H2.05469L2.80544 24.3876C3.19993 24.3758 3.59316 24.364 3.98841 24.3532C3.93979 24.5751 3.87801 24.7862 3.84104 25.0086C4.32213 24.4581 4.93539 24.1775 5.65146 24.3758C6.36549 24.5633 6.51438 25.2436 6.4017 25.8981C6.38777 26.0979 6.36549 26.2729 6.31612 26.4599Z" fill="#98272A"/>
<path fill-rule="evenodd" clip-rule="evenodd" d="M29.6763 22.8071H30.933L29.8123 27.8883H28.6557C28.704 27.7008 28.7526 27.5143 28.8154 27.3253C28.5805 27.5371 28.3845 27.7121 28.1255 27.8301V27.0685C28.224 27.0458 28.3237 27.0097 28.4088 26.9637C28.7797 26.7408 28.9251 26.3427 28.9251 25.9443L28.9013 25.7455C28.8772 25.559 28.7916 25.3938 28.5686 25.3012C28.447 25.2301 28.2733 25.2301 28.1255 25.2542V24.352C28.1986 24.352 28.2604 24.3751 28.3237 24.3751C28.6802 24.4572 28.9869 24.6806 29.1616 25.0195L29.6763 22.8071ZM28.1255 27.8301C28.0399 27.877 27.9424 27.9001 27.8292 27.9227C27.4866 28.0046 27.2871 28.0284 26.9306 27.9001C26.5128 27.7591 26.3042 27.4902 26.1439 27.1272C25.7745 26.2378 26.1793 24.9731 27.0909 24.5395C27.3861 24.3985 27.7674 24.3176 28.1255 24.352V25.2542C28.0275 25.266 27.9178 25.3012 27.8426 25.3474C27.633 25.4766 27.497 25.6637 27.4238 25.8856C27.3388 26.1075 27.2871 26.4243 27.3623 26.658C27.3861 26.7755 27.4365 26.8588 27.5092 26.9279C27.6813 27.0685 27.9178 27.1034 28.1255 27.0685" fill="#98272A"/>
<path fill-rule="evenodd" clip-rule="evenodd" d="M19.2356 24.4351L18.9773 25.1839C18.6208 25.091 18.3608 25.0429 17.9924 25.02C17.8805 25.02 17.7964 25.0082 17.7106 25.0308C17.4503 25.091 17.3391 25.3125 17.5369 25.4769C17.7822 25.7106 18.2139 25.7684 18.5216 25.9564C18.5968 26.004 18.6821 26.0741 18.7677 26.1441C19.012 26.5069 18.9773 26.8935 18.7193 27.269C18.3119 27.8416 17.5369 27.9004 16.8347 27.8534C16.4529 27.8291 16.1323 27.7596 15.75 27.6895L15.9855 26.8461C16.4529 26.964 16.7491 27.0697 17.1897 27.0213C17.3885 27.01 17.6733 27.0213 17.6733 26.7647C17.623 26.5769 17.4389 26.4595 17.2406 26.3781C16.9464 26.2493 16.6258 26.1675 16.3921 25.9446C16.2546 25.7576 16.2169 25.617 16.2169 25.383C16.2169 25.1488 16.2926 24.9856 16.4033 24.8327C17.0325 23.9789 18.3261 24.2245 19.2356 24.4351Z" fill="#98272A"/>
<path fill-rule="evenodd" clip-rule="evenodd" d="M11.9287 24.3525L13.2337 24.3294C13.1354 24.7629 13.0359 25.196 12.9374 25.6519C12.8777 25.9448 12.7541 26.3206 12.8407 26.6126C12.8906 26.776 12.9493 26.835 13.1111 26.8814C13.296 26.9406 13.5314 26.905 13.6788 26.7996C14.1209 26.4958 14.2442 25.9915 14.3549 25.4997L14.6258 24.3294H15.8948L15.1056 27.8777C14.7367 27.8888 14.3668 27.8659 13.9849 27.8777C14.0216 27.6777 14.072 27.385 14.1209 27.1859C13.9849 27.3036 13.875 27.4329 13.7269 27.5376C13.5428 27.6777 13.3203 27.7718 13.0868 27.8306C12.8154 27.8888 12.446 27.8888 12.1872 27.7831C11.9033 27.6777 11.6947 27.4329 11.5835 27.1626C11.4362 26.7996 11.4969 26.5545 11.5592 26.179C11.6572 25.5708 11.7937 24.95 11.9287 24.3525Z" fill="#98272A"/>
<path fill-rule="evenodd" clip-rule="evenodd" d="M10.481 22.8071H11.7376L10.6051 27.8883H9.4469C9.49628 27.7008 9.55781 27.5143 9.60617 27.3253C9.38613 27.5371 9.17699 27.7121 8.93011 27.8301V27.0685C9.02912 27.0458 9.12635 27.0097 9.21395 26.9637C9.56945 26.7408 9.71884 26.3427 9.71884 25.9443L9.70466 25.7455C9.68086 25.559 9.58237 25.3938 9.36284 25.3012C9.23674 25.2301 9.06507 25.2301 8.93011 25.2542V24.352C8.99189 24.352 9.05165 24.3751 9.12635 24.3751C9.47172 24.4572 9.77936 24.6806 9.9642 25.0195L10.481 22.8071ZM8.93011 27.8301C8.83212 27.877 8.73287 27.9001 8.63285 27.9227C8.29027 28.0046 8.08188 28.0284 7.72435 27.9001C7.31594 27.7591 7.09438 27.4902 6.9336 27.1272C6.57557 26.2378 6.98601 24.9731 7.88362 24.5395C8.17886 24.3985 8.57259 24.3176 8.93011 24.352V25.2542C8.81946 25.266 8.72147 25.3012 8.63285 25.3474C8.43763 25.4766 8.29027 25.6637 8.21506 25.8856C8.12999 26.1075 8.08188 26.4243 8.15328 26.658C8.17886 26.7755 8.22798 26.8588 8.31255 26.9279C8.48701 27.0685 8.70704 27.1034 8.93011 27.0685" fill="#98272A"/>
<path fill-rule="evenodd" clip-rule="evenodd" d="M1.10777 22.8071H2.42519L1.32983 27.877H0" fill="#98272A"/>
<path fill-rule="evenodd" clip-rule="evenodd" d="M25.5391 26.4599L25.2299 27.8779H23.9249C24.0353 27.4085 24.146 26.9052 24.2455 26.425C24.27 26.3208 24.2959 26.2141 24.3323 26.1101C24.3323 26.0155 24.3323 25.9337 24.3432 25.8516C24.4065 25.278 23.9477 25.1721 23.5426 25.348C23.3086 25.4532 23.198 25.6051 23.0754 25.8167C22.9531 26.0042 22.9151 26.1915 22.8784 26.4134L22.5447 27.8779H21.2891L22.016 24.3876C22.4087 24.3758 22.8058 24.3758 23.198 24.3532C23.1494 24.5751 23.099 24.7862 23.0491 25.0086C23.5297 24.4581 24.146 24.1775 24.86 24.3758C25.5753 24.5633 25.7237 25.2436 25.6252 25.9104C25.5999 26.0979 25.5753 26.2729 25.5391 26.4599Z" fill="#98272A"/>
<path fill-rule="evenodd" clip-rule="evenodd" d="M20.2453 22.8071H21.5757L20.4803 27.877H19.1484" fill="#98272A"/>
<path fill-rule="evenodd" clip-rule="evenodd" d="M44.9029 26.4954L44.5958 27.9229H43.2903C43.3888 27.4434 43.5123 26.928 43.6121 26.4593C43.6339 26.3426 43.6597 26.2379 43.6853 26.1202C43.6853 26.0381 43.6956 25.9562 43.7091 25.873C43.7595 25.2993 43.3153 25.1956 42.8955 25.3699C42.6616 25.4649 42.5519 25.6284 42.418 25.8395C42.3056 26.0268 42.2691 26.203 42.22 26.4362L41.8976 27.912H40.6172L41.3576 24.3986C41.7493 24.3868 42.1572 24.375 42.5519 24.3634C42.502 24.5856 42.4519 24.809 42.4035 25.0196C42.8722 24.4691 43.5123 24.188 44.215 24.375C44.9528 24.5746 45.0883 25.2661 44.99 25.9218C44.9766 26.1202 44.9399 26.2956 44.9029 26.4954Z" fill="#98272A"/>
<path fill-rule="evenodd" clip-rule="evenodd" d="M46.3803 22.8074H47.6729L47.0075 25.8281L48.3141 24.3754H49.7664L48.2409 25.98L49.1998 27.9004H47.8201L46.9718 26.0382L46.5649 27.9004H45.2969" fill="#98272A"/>
<path fill-rule="evenodd" clip-rule="evenodd" d="M40.3844 26.0383C40.2735 26.5419 40.1628 27.0337 40.0626 27.5259L40.0144 27.9231H38.9429L39.0183 27.3849C38.8335 27.5601 38.6352 27.7125 38.4266 27.8184V27.2094C38.4377 27.1976 38.4618 27.1976 38.4859 27.1851C38.6233 27.1155 38.7223 27.0688 38.795 26.9978C38.968 26.8231 39.0551 26.5547 39.1265 26.3313H38.9429C38.7846 26.3313 38.598 26.3205 38.4266 26.3313V25.7459C38.6841 25.7228 38.9801 25.7336 39.2746 25.7336C39.2746 25.4286 39.152 25.1959 38.8196 25.1263C38.6722 25.1022 38.5378 25.1022 38.4266 25.1022V24.3755C39.2272 24.2828 40.077 24.4111 40.3725 25.1022C40.5191 25.4529 40.4348 25.6754 40.3844 26.0383ZM38.4266 27.8184C38.2291 27.9123 38.0065 27.9715 37.7979 27.9936C37.3168 28.0401 36.8127 27.8304 36.6035 27.4082C36.4546 27.1738 36.4934 26.9169 36.5529 26.6481C36.6162 26.3905 36.74 26.2494 37.0575 26.0383C37.5141 25.8282 37.9597 25.7572 38.4266 25.7459V26.3313C38.2413 26.3431 38.0567 26.3905 37.9336 26.4728C37.6878 26.6481 37.5903 26.9759 37.8592 27.1738C38.0194 27.279 38.2413 27.2691 38.4266 27.2094V27.8184ZM38.4266 25.1022C38.2529 25.1022 38.1045 25.1135 37.9093 25.1609C37.6878 25.2072 37.5275 25.2777 37.3168 25.3704L37.4647 24.5517C37.7619 24.4821 38.0792 24.4111 38.4266 24.3755" fill="#98272A"/>
<path fill-rule="evenodd" clip-rule="evenodd" d="M34.0654 23.2182H34.7425C35.335 23.2182 36.2457 23.3001 36.4159 23.9558C36.4536 24.0612 36.4655 24.1657 36.4655 24.2709V24.2836C36.4655 24.6685 36.2701 25.0089 35.9006 25.2441C35.6411 25.3601 35.4211 25.4191 35.1623 25.4891C35.8259 25.5943 36.2587 26.0278 36.1222 26.7189C35.9234 27.6784 34.9764 27.8298 34.0654 27.8895V27.047C34.1143 27.047 34.1649 27.0345 34.2014 27.0222C34.964 26.9055 35.1357 26.0625 34.411 25.9108C34.2983 25.8868 34.1895 25.874 34.0654 25.8868V25.137C34.2133 25.137 34.3736 25.1252 34.508 25.103C34.9154 25.0089 35.456 24.6112 35.0124 24.1657C34.8275 23.9799 34.3855 24.0025 34.0654 24.0256V23.2182ZM32.8341 23.2182H34.0654V24.0256H33.9542L33.695 25.1252C33.8064 25.1252 33.9434 25.137 34.0654 25.137V25.8868C33.8927 25.8868 33.7079 25.9108 33.5357 25.9229L33.2772 27.0927C33.4977 27.0809 33.795 27.0809 34.0654 27.047V27.8895C33.9907 27.9013 33.9071 27.9013 33.8299 27.9131H31.8359" fill="#98272A"/>
</g>
<defs>
<clipPath id="clip0_4074_78983">
<rect width="50" height="50" fill="white" transform="translate(0 0.367188)"/>
</clipPath>
</defs>
</svg>
