<svg width="50" height="51" viewBox="0 0 50 51" fill="none" xmlns="http://www.w3.org/2000/svg">
<path fill-rule="evenodd" clip-rule="evenodd" d="M7.96875 25.1662C7.96875 17.0848 15.5854 10.5342 24.9824 10.5342C34.3799 10.5342 41.9965 17.0848 41.9965 25.1662C41.9965 33.2485 34.3799 39.7996 24.9824 39.7996C15.5854 39.7996 7.96875 33.2485 7.96875 25.1662Z" fill="#1F4578"/>
<path fill-rule="evenodd" clip-rule="evenodd" d="M22.9126 15.232L26.8646 13.9258L26.884 35.2952L22.8984 36.6307L22.9126 15.232Z" fill="#ED3338"/>
<path fill-rule="evenodd" clip-rule="evenodd" d="M25.2597 28.559C23.5418 30.6286 21.8815 32.7446 18.7714 32.7446C14.3779 32.7446 12.2969 28.4976 12.2969 24.9469C12.2969 21.5356 13.9245 17.4971 18.2022 17.4971C20.0587 17.4971 21.8475 18.6326 22.9107 19.8328L22.908 22.7293C22.0192 22.1298 20.0257 21.5418 18.7243 21.521C16.0108 21.4751 13.6174 22.6508 13.6604 25.3298C13.6883 27.1739 15.5144 28.4285 17.3326 28.4285C20.1174 28.4285 21.8032 25.8848 23.2138 23.9537C23.6067 23.4497 24.7167 21.9663 24.8892 21.729C26.4554 19.5416 28.2678 17.5429 31.3775 17.5429C35.0397 17.5429 37.0956 20.4965 37.678 23.5367H36.0263C35.3617 22.551 34.0824 21.9478 32.8207 21.9478C29.9427 21.9478 28.2234 24.5951 26.7849 26.5442C26.7849 26.5442 25.665 28.0711 25.2598 28.559H25.2597ZM37.7739 26.6407C37.4028 29.6978 35.6891 32.7843 31.9446 32.7909C29.7601 32.7949 28.0516 31.298 26.8684 29.4671V27.3469C28.349 28.082 29.7317 28.8686 31.4099 28.8942C33.4767 28.9249 35.3454 28.1293 36.1184 26.6407H37.7739Z" fill="white"/>
</svg>
