<svg width="50" height="51" viewBox="0 0 50 51" fill="none" xmlns="http://www.w3.org/2000/svg">
<path fill-rule="evenodd" clip-rule="evenodd" d="M8 8H43V43H8V8Z" fill="#A20E37"/>
<path fill-rule="evenodd" clip-rule="evenodd" d="M30.425 16H35.4788V35.6463H30.425V30.8125C26 32.4625 21.855 32.6138 18.03 28.8275C16.4437 27.1588 15.5675 24.895 15.9437 20.9275C15.9887 20.3425 15.7163 17.8825 15 16.3163H19.4888C21.5763 19.6888 18.8387 23.6338 22.0575 26.3825C26.4275 29.255 30.2475 25.8338 30.425 22.7188V16ZM25.405 18.1162C27.79 18.1162 29.7363 20.0587 29.7363 22.4413C29.7363 24.8225 27.79 26.765 25.405 26.765C23.0187 26.765 21.0725 24.8225 21.0725 22.4413C21.0725 20.0587 23.0187 18.1162 25.405 18.1162Z" fill="#FBBC09"/>
</svg>
