<svg width="50" height="51" viewBox="0 0 50 51" fill="none" xmlns="http://www.w3.org/2000/svg">
<path d="M24.31 42.824C19.7937 42.5332 15.5675 40.4971 12.5253 37.1464C9.48315 33.7957 7.86354 29.3931 8.00902 24.8697C8.1545 20.3463 10.0537 16.0569 13.3048 12.9086C16.556 9.7603 20.9043 8 25.43 8C29.9557 8 34.304 9.7603 37.5552 12.9086C40.8064 16.0569 42.7055 20.3463 42.851 24.8697C42.9965 29.3931 41.3769 33.7957 38.3347 37.1464C35.2925 40.4971 31.0664 42.5332 26.55 42.824V28.544C27.2385 28.2821 27.8135 27.7871 28.1749 27.1452C28.5363 26.5033 28.6613 25.755 28.5281 25.0304C28.395 24.3059 28.0121 23.651 27.4461 23.1795C26.88 22.708 26.1667 22.4498 25.43 22.4498C24.6933 22.4498 23.98 22.708 23.414 23.1795C22.8479 23.651 22.4651 24.3059 22.3319 25.0304C22.1987 25.755 22.3237 26.5033 22.6851 27.1452C23.0465 27.7871 23.6215 28.2821 24.31 28.544" fill="#1166DD"/>
</svg>
