<svg width="50" height="51" viewBox="0 0 50 51" fill="none" xmlns="http://www.w3.org/2000/svg">
<path d="M36.3344 22.3828C36.4419 22.4186 36.5178 22.5046 36.593 22.5848C37.6546 23.7023 38.7234 24.8119 39.7828 25.9308C39.785 24.8112 39.78 23.6916 39.785 22.5719C40.0722 22.5712 40.3588 22.5762 40.646 22.5669C40.6732 22.6679 40.6847 22.7711 40.6818 22.8756C40.6761 24.5784 40.684 26.2811 40.6782 27.9838C40.6568 27.9938 40.6145 28.0132 40.5937 28.0232C39.4526 26.8628 38.348 25.6658 37.209 24.5039C37.1983 25.6199 37.2219 26.7374 37.1976 27.8542C36.9082 27.8413 36.6188 27.8477 36.3301 27.8491C36.3308 26.0268 36.3229 24.2044 36.3344 22.3828Z" fill="white"/>
<path d="M13.5838 22.5198C14.2522 22.2763 14.9714 22.451 15.6225 22.6609C15.6304 23.0757 15.6261 23.4897 15.6261 23.9045C15.2264 23.6609 14.7937 23.4174 14.3145 23.4038C14.0724 23.388 13.7751 23.5363 13.7708 23.8078C13.7543 24.0062 13.9126 24.1581 14.0631 24.2598C14.6433 24.623 15.3181 24.8787 15.7643 25.4202C16.3073 26.1638 16.0194 27.3522 15.1984 27.7705C14.4413 28.1724 13.5394 28.0083 12.7586 27.7655C12.7135 27.2985 12.6841 26.8307 12.6655 26.3622C13.1175 26.6444 13.6182 26.9081 14.1655 26.8987C14.3983 26.883 14.6727 26.8121 14.7873 26.5864C14.9069 26.3837 14.8159 26.1158 14.6376 25.9797C14.1261 25.5707 13.4642 25.3715 13.0144 24.883C12.7228 24.5785 12.5752 24.1466 12.6161 23.7275C12.6462 23.1724 13.0645 22.6903 13.5838 22.5198Z" fill="white"/>
<path d="M32.6055 22.9909C32.7108 22.7825 32.7853 22.5575 32.9264 22.3691C33.7752 24.1872 34.5933 26.0196 35.425 27.8462C35.1076 27.8484 34.7896 27.8434 34.4722 27.8512C34.3232 27.5411 34.1857 27.2259 34.0489 26.9107C33.2552 26.9064 32.4615 26.9093 31.6678 26.9093C31.5274 27.2237 31.3899 27.5396 31.2373 27.8491C30.9285 27.8448 30.6205 27.8477 30.3125 27.8462C31.0847 26.2323 31.8383 24.6084 32.6055 22.9909ZM32.8182 24.3126C32.5475 24.9221 32.2903 25.5382 32.0095 26.1428C32.5775 26.1686 33.1477 26.1485 33.7165 26.1521C33.4436 25.5074 33.1599 24.867 32.8877 24.2216C32.8705 24.2445 32.8354 24.2896 32.8182 24.3126Z" fill="white"/>
<path d="M2.60938 22.5727C3.10293 22.5698 3.59576 22.5777 4.0886 22.5684C4.47327 23.1185 4.82069 23.693 5.20035 24.2467C5.5972 23.6844 5.99763 23.1235 6.40809 22.5712C6.84218 22.5755 7.27628 22.5691 7.71038 22.5748C7.05278 23.4974 6.34433 24.3864 5.70321 25.3184C5.69175 26.16 5.70035 27.0032 5.69963 27.8456C5.28774 27.8484 4.87585 27.847 4.46396 27.8463C4.45751 27.0103 4.47757 26.1722 4.45465 25.337C3.8515 24.4086 3.21038 23.5039 2.60938 22.5727Z" fill="white"/>
<path d="M8.25 27.8478C8.25287 26.0892 8.24642 24.3299 8.25358 22.5713C9.32307 22.5742 10.3926 22.572 11.462 22.5727C11.4649 22.9316 11.4585 23.2912 11.467 23.6501C10.7987 23.6766 10.1261 23.6264 9.4563 23.673C9.45774 23.9896 9.45559 24.3062 9.45917 24.6221C10.0322 24.62 10.606 24.615 11.1791 24.6257C11.1719 24.9817 11.1769 25.3385 11.1762 25.6959C10.6024 25.6952 10.0294 25.6959 9.4563 25.6945C9.45845 26.0412 9.45702 26.3886 9.45702 26.7353C10.1332 26.736 10.8095 26.7296 11.4857 26.7375C11.4871 27.1078 11.49 27.4782 11.4842 27.8492C10.4062 27.8456 9.32808 27.8471 8.25 27.8478Z" fill="white"/>
<path d="M26.3068 22.5719C26.9737 22.5869 27.6428 22.5382 28.3068 22.6091C28.7366 22.6593 29.2044 22.8305 29.4293 23.2266C29.6693 23.6643 29.6729 24.2653 29.3427 24.6593C29.1987 24.8376 28.9852 24.9329 28.7853 25.0339C29.1693 25.1392 29.511 25.4179 29.6342 25.804C29.7796 26.2789 29.7395 26.8419 29.4329 27.2466C29.0919 27.6822 28.511 27.8054 27.9881 27.8391C27.4265 27.8548 26.8656 27.8434 26.3047 27.8477C26.309 26.0891 26.3033 24.3305 26.3068 22.5719ZM27.1836 23.2775C27.1865 23.7732 27.1851 24.2696 27.1851 24.766C27.5776 24.7552 28.0117 24.8262 28.3641 24.6091C28.7832 24.3742 28.8326 23.6421 28.3892 23.4078C28.0174 23.2209 27.5848 23.2889 27.1836 23.2775ZM27.1843 25.4701C27.1865 26.0174 27.1851 26.5654 27.1858 27.1127C27.5862 27.0984 28.0146 27.1714 28.3914 26.9988C28.8942 26.7689 28.9616 25.9666 28.5182 25.6478C28.1278 25.3777 27.6278 25.4945 27.1843 25.4701Z" fill="white"/>
<path d="M42.3393 27.848C42.3415 26.0887 42.3265 24.3286 42.3465 22.5693C42.6416 22.5736 42.9368 22.5722 43.2319 22.5708C43.2441 23.3587 43.2319 24.1467 43.2362 24.9347C43.979 24.1467 44.7197 23.3573 45.4661 22.5729C45.8164 22.5708 46.1674 22.5722 46.5184 22.5715C45.7305 23.4211 44.9318 24.2613 44.1373 25.1059C45.017 26.0156 45.8866 26.9354 46.7677 27.843C46.3759 27.8509 45.9848 27.8437 45.5929 27.8487C44.81 27.0242 44.0242 26.2026 43.2376 25.3824C43.2333 26.2033 43.2391 27.0242 43.2355 27.8458C42.9368 27.848 42.6381 27.8451 42.3393 27.848Z" fill="white"/>
<path d="M26.4994 17.0136C26.7559 16.6769 26.9915 16.3231 27.2666 16C24.5818 20.745 21.9163 25.5021 19.2372 30.2507C18.5696 31.4484 17.8855 32.6375 17.2251 33.8388C17.167 33.808 17.1147 33.7693 17.0689 33.7228C16.1262 32.7622 15.1785 31.8073 14.2344 30.8481C14.9049 30.841 15.5746 30.8474 16.2451 30.8446C19.6635 26.235 23.0818 21.6246 26.4994 17.0136Z" fill="#C4261B"/>
<path d="M0.000112624 19.9276C8.01229 19.9161 16.0238 19.9283 24.0359 19.9219C21.3712 23.4412 18.725 26.9749 16.0481 30.4849C10.7007 30.4806 5.35326 30.482 0.00584329 30.4871C-0.00633436 26.967 0.00512695 23.4477 0.000112624 19.9276ZM13.5803 22.5193C13.061 22.6898 12.6427 23.1719 12.6126 23.727C12.5717 24.1461 12.7193 24.578 13.0109 24.8825C13.4607 25.371 14.1226 25.5702 14.6341 25.9792C14.8124 26.1153 14.9034 26.3832 14.7838 26.5859C14.6692 26.8116 14.3948 26.8825 14.162 26.8982C13.6147 26.9075 13.114 26.6439 12.662 26.3617C12.6806 26.8302 12.71 27.2979 12.7551 27.765C13.5359 28.0078 14.4378 28.1719 15.195 27.77C16.0159 27.3517 16.3038 26.1633 15.7609 25.4197C15.3146 24.8782 14.6398 24.6224 14.0596 24.2593C13.9091 24.1575 13.7508 24.0057 13.7673 23.8073C13.7716 23.5358 14.0689 23.3875 14.311 23.4032C14.7902 23.4169 15.2229 23.6604 15.6226 23.904C15.6226 23.4892 15.6269 23.0752 15.619 22.6604C14.9679 22.4505 14.2487 22.2757 13.5803 22.5193ZM2.609 22.5723C3.21 23.5035 3.85112 24.4083 4.45427 25.3366C4.47719 26.1719 4.45713 27.01 4.46358 27.8459C4.87547 27.8467 5.28736 27.8481 5.69925 27.8452C5.69997 27.0028 5.69137 26.1597 5.70283 25.318C6.34395 24.3861 7.0524 23.4971 7.71 22.5745C7.2759 22.5687 6.8418 22.5752 6.40771 22.5709C5.99725 23.1232 5.59682 23.6841 5.19997 24.2464C4.82031 23.6926 4.47289 23.1181 4.08822 22.568C3.59538 22.5773 3.10255 22.5694 2.609 22.5723ZM8.25011 27.8474C9.32819 27.8467 10.4063 27.8452 11.4844 27.8488C11.4901 27.4777 11.4872 27.1074 11.4858 26.7371C10.8096 26.7292 10.1334 26.7356 9.45713 26.7349C9.45713 26.3882 9.45857 26.0408 9.45642 25.6941C10.0295 25.6955 10.6025 25.6948 11.1763 25.6955C11.177 25.3381 11.172 24.9813 11.1792 24.6253C10.6061 24.6146 10.0323 24.6196 9.45928 24.6217C9.4557 24.3058 9.45785 23.9892 9.45642 23.6726C10.1262 23.626 10.7988 23.6762 11.4672 23.6497C11.4586 23.2908 11.465 22.9312 11.4621 22.5723C10.3927 22.5716 9.32318 22.5737 8.25369 22.5709C8.24653 24.3295 8.25298 26.0888 8.25011 27.8474Z" fill="#005192"/>
<path d="M23.6026 22.9939C24.1807 21.9731 24.7201 20.9294 25.3154 19.9201C33.4056 19.9251 41.4966 19.9287 49.5869 19.918C49.6127 23.4402 49.594 26.9638 49.5962 30.4867C39.5561 30.4803 29.5167 30.4853 19.4766 30.4846C20.8426 27.9824 22.2301 25.4925 23.6026 22.9939ZM36.334 22.3829C36.3225 24.2045 36.3304 26.0269 36.3297 27.8492C36.6184 27.8478 36.9078 27.8413 37.1972 27.8542C37.2215 26.7375 37.1979 25.62 37.2087 24.5039C38.3476 25.6658 39.4522 26.8628 40.5933 28.0233C40.6141 28.0132 40.6564 27.9939 40.6779 27.9839C40.6836 26.2811 40.6757 24.5784 40.6814 22.8757C40.6843 22.7711 40.6728 22.668 40.6456 22.567C40.3584 22.5763 40.0718 22.5713 39.7846 22.572C39.7796 23.6916 39.7846 24.8112 39.7824 25.9309C38.723 24.812 37.6542 23.7024 36.5926 22.5849C36.5174 22.5046 36.4415 22.4187 36.334 22.3829ZM32.6105 22.991C31.8433 24.6085 31.0897 26.2324 30.3175 27.8463C30.6256 27.8478 30.9336 27.8449 31.2423 27.8492C31.3949 27.5397 31.5324 27.2238 31.6728 26.9094C32.4665 26.9094 33.2602 26.9065 34.0539 26.9108C34.1907 27.226 34.3283 27.5412 34.4773 27.8513C34.7946 27.8435 35.1127 27.8485 35.43 27.8463C34.5983 26.0197 33.7803 24.1873 32.9314 22.3693C32.7903 22.5577 32.7158 22.7826 32.6105 22.991ZM26.3082 22.572C26.3046 24.3306 26.3104 26.0892 26.3061 27.8478C26.867 27.8435 27.4279 27.8549 27.9895 27.8392C28.5124 27.8055 29.0933 27.6823 29.4343 27.2468C29.7409 26.842 29.781 26.279 29.6356 25.8041C29.5124 25.418 29.1707 25.1393 28.7867 25.034C28.9866 24.933 29.2001 24.8377 29.344 24.6594C29.6743 24.2654 29.6707 23.6644 29.4307 23.2267C29.2058 22.8306 28.738 22.6594 28.3082 22.6092C27.6442 22.5383 26.9751 22.587 26.3082 22.572ZM42.3412 27.8485C42.6399 27.8456 42.9386 27.8485 43.2373 27.8463C43.2409 27.0247 43.2352 26.2038 43.2395 25.3829C44.026 26.2031 44.8118 27.0247 45.5948 27.8492C45.9866 27.8442 46.3777 27.8513 46.7695 27.8435C45.8885 26.9359 45.0188 26.0161 44.1392 25.1064C44.9336 24.2618 45.7323 23.4216 46.5203 22.572C46.1693 22.5727 45.8183 22.5713 45.468 22.5734C44.7215 23.3578 43.9809 24.1472 43.238 24.9352C43.2337 24.1472 43.2459 23.3592 43.2337 22.5713C42.9386 22.5727 42.6435 22.5741 42.3483 22.5698C42.3283 24.3291 42.3433 26.0892 42.3412 27.8485Z" fill="#005192"/>
<path d="M27.1797 23.2774C27.5808 23.2889 28.0135 23.2209 28.3853 23.4078C28.8287 23.6421 28.7793 24.3741 28.3602 24.6091C28.0078 24.8262 27.5737 24.7552 27.1811 24.766C27.1811 24.2696 27.1826 23.7731 27.1797 23.2774Z" fill="#005192"/>
<path d="M32.8166 24.3127C32.8337 24.2897 32.8688 24.2446 32.886 24.2217C33.1582 24.8671 33.4419 25.5075 33.7148 26.1522C33.1461 26.1486 32.5759 26.1687 32.0078 26.1429C32.2886 25.5383 32.5458 24.9223 32.8166 24.3127Z" fill="#005192"/>
<path d="M27.1797 25.4707C27.6231 25.4951 28.1231 25.3783 28.5135 25.6484C28.9569 25.9671 28.8896 26.7694 28.3867 26.9994C28.0099 27.172 27.5815 27.0989 27.1811 27.1133C27.1804 26.566 27.1818 26.018 27.1797 25.4707Z" fill="#005192"/>
</svg>
